<svg width="100" height="100" viewBox="0 0 100 100" fill="none" xmlns="http://www.w3.org/2000/svg">
<g filter="url(#filter0_f_138_502)">
<circle cx="50" cy="50" r="25" fill="#25B4F8"/>
</g>
<circle cx="50" cy="50" r="35" fill="#25B4F8"/>
<g clip-path="url(#clip0_138_502)">
<path d="M32.0693 45.1796C34.268 49.3768 37.6255 51.9832 40.845 53.5992C45.9901 56.1816 51.5276 56.5076 56.7604 54.5802L56.8555 54.5454" stroke="white" stroke-width="1.5" stroke-miterlimit="10" stroke-linecap="round" stroke-linejoin="round"/>
<path d="M59.8091 53.1816C62.7694 51.5456 65.7673 49.0367 67.7863 45.196" stroke="white" stroke-width="1.5" stroke-miterlimit="10" stroke-linecap="round" stroke-linejoin="round"/>
<path d="M26.6931 44.5166C27.4966 45.4822 28.3059 46.4408 29.1171 47.3972C33.1876 52.1967 37.1466 56.9178 42.4514 59.7796C47.5462 62.5283 52.4405 62.5353 57.5487 59.7795C62.8533 56.9178 66.8124 52.1967 70.8828 47.3972C71.694 46.4408 72.5034 45.4822 73.3068 44.5166" stroke="white" stroke-width="1.5" stroke-miterlimit="10" stroke-linecap="round" stroke-linejoin="round"/>
<path d="M45.4175 46.1345V49.2529C45.4175 49.7475 45.8184 50.1484 46.313 50.1484H49.0851C49.5796 50.1484 49.9806 49.7475 49.9806 49.2529V46.2263" stroke="white" stroke-width="1.5" stroke-miterlimit="10" stroke-linecap="round" stroke-linejoin="round"/>
<path d="M49.9875 46.2263V49.2529C49.9875 49.7476 50.3885 50.1484 50.883 50.1484H53.6552C54.1498 50.1484 54.5506 49.7476 54.5506 49.2529V46.1345" stroke="white" stroke-width="1.5" stroke-miterlimit="10" stroke-linecap="round" stroke-linejoin="round"/>
<path d="M54.5825 46.1345V49.3765C54.5825 49.8028 54.9282 50.1484 55.3545 50.1484H57.744C58.1702 50.1484 58.5158 49.8028 58.5158 49.3765V45.9528" stroke="white" stroke-width="1.5" stroke-miterlimit="10" stroke-linecap="round" stroke-linejoin="round"/>
<path d="M58.5159 45.954V48.0646C58.5159 48.4679 58.8429 48.7949 59.2462 48.7949H61.507C61.9104 48.7949 62.2374 48.4679 62.2374 48.0646V45.7034" stroke="white" stroke-width="1.5" stroke-miterlimit="10" stroke-linecap="round" stroke-linejoin="round"/>
<path d="M45.4172 46.1345V49.3765C45.4172 49.8028 45.0715 50.1484 44.6452 50.1484H42.2557C41.8294 50.1484 41.4839 49.8028 41.4839 49.3765V45.9528" stroke="white" stroke-width="1.5" stroke-miterlimit="10" stroke-linecap="round" stroke-linejoin="round"/>
<path d="M41.4842 45.9541V48.0646C41.4842 48.4679 41.1572 48.7949 40.7539 48.7949H38.4931C38.0897 48.7949 37.7627 48.4679 37.7627 48.0646V45.7034" stroke="white" stroke-width="1.5" stroke-miterlimit="10" stroke-linecap="round" stroke-linejoin="round"/>
<path d="M41.4423 37.1329C44.3597 36.0673 47.34 35.8752 49.9999 38.19C55.1944 33.6695 61.6106 38.7099 66.3932 41.1439C68.6779 42.3068 71.0022 43.381 73.2971 44.5213C73.2971 44.5213 62.2393 46.1698 50.0097 46.2264V46.2266C50.0065 46.2266 50.0032 46.2265 49.9999 46.2265C49.9968 46.2265 49.9935 46.2266 49.9902 46.2266V46.2264C37.7606 46.1698 26.7029 44.5213 26.7029 44.5213C28.9978 43.381 31.3219 42.3068 33.6067 41.1439C35.0674 40.4005 36.6805 39.414 38.3646 38.531L38.507 38.4567" stroke="white" stroke-width="1.5" stroke-miterlimit="10" stroke-linecap="round" stroke-linejoin="round"/>
<path d="M65.3602 60.0441C65.0561 60.689 64.1753 62.2639 62.6232 62.7996C62.5029 62.8412 62.5029 63.0123 62.6232 63.0538C64.1753 63.5895 65.0561 65.1644 65.3602 65.8093C65.4089 65.9125 65.5558 65.9125 65.6044 65.8093C65.9085 65.1644 66.7893 63.5895 68.3415 63.0538C68.4617 63.0123 68.4617 62.8412 68.3415 62.7996C66.7893 62.2639 65.9085 60.689 65.6044 60.0441C65.5558 59.9409 65.4089 59.9409 65.3602 60.0441Z" stroke="white" stroke-width="1.5" stroke-miterlimit="10" stroke-linecap="round" stroke-linejoin="round"/>
<path d="M35.4622 27.7672C35.0433 28.6555 33.8302 30.8247 31.6924 31.5625C31.5267 31.6197 31.5267 31.8554 31.6924 31.9126C33.8302 32.6504 35.0433 34.8197 35.4622 35.7079C35.5292 35.85 35.7316 35.85 35.7986 35.7079C36.2175 34.8197 37.4306 32.6504 39.5684 31.9126C39.734 31.8554 39.734 31.6197 39.5684 31.5625C37.4306 30.8247 36.2175 28.6555 35.7986 27.7672C35.7316 27.6251 35.5292 27.6251 35.4622 27.7672Z" stroke="white" stroke-width="1.5" stroke-miterlimit="10" stroke-linecap="round" stroke-linejoin="round"/>
<path d="M58.4407 64.2907C58.0218 65.179 56.8087 67.3481 54.6709 68.086C54.5052 68.1431 54.5052 68.3788 54.6709 68.436C56.8087 69.1738 58.0218 71.3431 58.4407 72.2313C58.5077 72.3734 58.7101 72.3734 58.7771 72.2313C59.196 71.3431 60.4091 69.1738 62.5469 68.436C62.7125 68.3788 62.7125 68.1431 62.5469 68.086C60.4091 67.3481 59.196 65.179 58.7771 64.2907C58.7101 64.1485 58.5077 64.1485 58.4407 64.2907Z" stroke="white" stroke-width="1.5" stroke-miterlimit="10" stroke-linecap="round" stroke-linejoin="round"/>
</g>
<defs>
<filter id="filter0_f_138_502" x="0" y="0" width="100" height="100" filterUnits="userSpaceOnUse" color-interpolation-filters="sRGB">
<feFlood flood-opacity="0" result="BackgroundImageFix"/>
<feBlend mode="normal" in="SourceGraphic" in2="BackgroundImageFix" result="shape"/>
<feGaussianBlur stdDeviation="12.5" result="effect1_foregroundBlur_138_502"/>
</filter>
<clipPath id="clip0_138_502">
<rect width="48" height="48" fill="white" transform="translate(26 26)"/>
</clipPath>
</defs>
</svg>
