<svg width="100" height="100" viewBox="0 0 100 100" fill="none" xmlns="http://www.w3.org/2000/svg">
<g filter="url(#filter0_f_138_553)">
<circle cx="50" cy="50" r="25" fill="#25B4F8"/>
</g>
<circle cx="50" cy="50" r="35" fill="#25B4F8"/>
<g clip-path="url(#clip0_138_553)">
<path d="M65.9597 30.9175C65.7806 30.5729 65.3558 30.4385 65.0116 30.6175C64.667 30.7966 64.5326 31.221 64.7116 31.5657C65.629 33.3315 65.8216 35.361 65.254 37.28C65.0277 38.0468 63.0395 44.7807 62.9527 45.115C62.9355 45.1817 62.8758 45.2286 62.8081 45.2286H46.2151C45.8266 45.2286 45.512 45.5431 45.512 45.9317C45.512 46.3199 45.8266 46.6348 46.2151 46.6348H60.6745L60.2838 48.7834C60.2706 48.8544 60.2091 48.9057 60.1369 48.9057H39.8775C39.8054 48.9057 39.7438 48.8544 39.731 48.7834L39.3399 46.6348H43.1532C43.5414 46.6348 43.8564 46.3199 43.8564 45.9317C43.8564 45.5431 43.5414 45.2286 43.1532 45.2286H37.2064C37.1386 45.2286 37.0789 45.1821 37.0617 45.1154C37.0599 45.1081 37.0577 45.1008 37.0559 45.0934L34.7605 37.28C34.0658 34.9304 34.5081 32.4574 35.9744 30.4945C37.4407 28.532 39.6867 27.4062 42.1366 27.4062C42.8658 27.4062 43.5868 27.5081 44.2801 27.7087C48.0268 28.7938 51.988 28.7938 55.7344 27.7087C56.4276 27.5081 57.1487 27.4062 57.8778 27.4062C59.7627 27.4062 61.5714 28.0903 62.9714 29.3325C63.2618 29.5903 63.7064 29.564 63.9642 29.2735C64.222 28.9828 64.1953 28.5386 63.9049 28.2808C62.2474 26.8101 60.1069 26 57.8778 26C57.0165 26 56.1636 26.1205 55.3433 26.3578C51.8526 27.3689 48.1619 27.3689 44.6712 26.3578C43.8509 26.1205 42.998 26 42.1366 26C39.2388 26 36.582 27.3315 34.8476 29.6529C33.1132 31.9743 32.5899 34.8996 33.4117 37.6773L35.7038 45.4805C35.8858 46.1609 36.5021 46.6348 37.2064 46.6348H37.9106L38.3475 49.0349C38.4819 49.7751 39.1257 50.3119 39.8775 50.3119H42.9416L43.4382 54.5892L42.9427 54.7218C42.43 54.8591 42.0015 55.188 41.7364 55.6476C41.4709 56.1072 41.4006 56.6426 41.5379 57.1549C41.7756 58.0415 42.5801 58.6274 43.4572 58.6274C43.604 58.6274 43.7531 58.6099 43.9018 58.5758L44.1545 60.7514L43.4843 60.9313C42.4263 61.2147 41.7961 62.306 42.0795 63.3644C42.3172 64.2506 43.1217 64.8369 43.9988 64.8369C44.1687 64.8369 44.3409 64.8149 44.5126 64.7688L44.6177 64.7406L44.8704 66.914L44.2965 67.0678C43.7839 67.2052 43.3558 67.534 43.0903 67.9936C42.8251 68.4532 42.7548 68.9882 42.8921 69.5009C43.0291 70.0133 43.358 70.4417 43.8175 70.7072C44.1237 70.8837 44.4632 70.9742 44.8074 70.9742C44.9799 70.9742 45.1538 70.9515 45.3249 70.9057L45.334 70.9031L45.5255 72.5515C45.6211 73.3773 46.3206 74.0002 47.1523 74.0002H52.8626C53.6939 74.0002 54.3933 73.3773 54.4893 72.5515L54.9811 68.3184L55.7183 68.1207C56.7759 67.8372 57.4061 66.7459 57.1227 65.688C56.9081 64.8874 56.231 64.3326 55.4557 64.2323L55.7432 61.7596L56.5305 61.5487C57.5881 61.2656 58.2184 60.1739 57.9349 59.116C57.7159 58.2986 57.0154 57.7372 56.22 57.6544L56.5052 55.2012L57.0718 55.0496C58.1301 54.7658 58.76 53.6745 58.4765 52.6165C58.277 51.872 57.6775 51.3402 56.9711 51.1886L57.0732 50.3123H60.1369C60.8891 50.3123 61.5326 49.7751 61.6673 49.0353L62.1042 46.6348H62.8081C63.5167 46.6348 64.136 46.1551 64.3139 45.4684C64.3758 45.2297 65.7165 40.6791 66.6027 37.6788C67.2736 35.4094 67.0455 33.0082 65.9597 30.9175V30.9175ZM53.0922 72.3889C53.0786 72.5057 52.9797 72.5936 52.8626 72.5936H47.1519C47.0347 72.5936 46.9358 72.5057 46.9223 72.3889L46.7069 70.5351L53.5199 68.7095L53.0922 72.3889ZM55.764 66.0516C55.8472 66.3607 55.663 66.6793 55.3539 66.7624L44.9609 69.5471C44.8111 69.5874 44.6547 69.5665 44.5207 69.4892C44.3863 69.4116 44.2903 69.2867 44.2504 69.1369C44.2101 68.9871 44.2306 68.8308 44.3083 68.6967C44.3859 68.5623 44.5108 68.4664 44.6606 68.4261L55.0536 65.6414C55.1038 65.6279 55.1539 65.6217 55.2037 65.6217C55.4597 65.6213 55.6948 65.7927 55.764 66.0516V66.0516ZM54.0128 64.4644L46.2433 66.5463L45.991 64.3725L54.2816 62.1511L54.0128 64.4644ZM56.5767 59.4796C56.6594 59.7887 56.4752 60.1077 56.1661 60.1904L44.1486 63.4105C43.8395 63.4936 43.5206 63.3094 43.4378 63.0003C43.355 62.6913 43.5392 62.3727 43.8483 62.2895L55.8658 59.0694C55.916 59.0559 55.9665 59.0497 56.016 59.0497C56.2723 59.0497 56.5074 59.2207 56.5767 59.4796V59.4796ZM57.1183 52.9801C57.201 53.2892 57.0168 53.6082 56.7078 53.6909L52.4114 54.8423C52.0364 54.9426 51.8137 55.3283 51.9144 55.7033C52.0148 56.0782 52.4 56.3009 52.7754 56.2006L55.0437 55.5927L54.7749 57.906L45.5274 60.3838L45.2751 58.2103L49.8153 56.9938C50.1907 56.8931 50.413 56.5074 50.3126 56.1324C50.2123 55.7575 49.8267 55.5348 49.4513 55.6351L43.607 57.2014C43.2979 57.2842 42.9793 57.1 42.8962 56.7909C42.8562 56.6415 42.8768 56.4851 42.9544 56.3507C43.0317 56.2167 43.1569 56.1204 43.3067 56.0804L56.4075 52.57C56.7165 52.4868 57.0355 52.6714 57.1183 52.9801V52.9801ZM55.537 51.3472L44.8114 54.2212L44.3573 50.3119H55.6575L55.537 51.3472Z" fill="white"/>
<path d="M55.3433 30.1079C51.8526 31.119 48.162 31.119 44.6713 30.1079C44.2985 30.0002 43.9081 30.2148 43.8004 30.588C43.6924 30.9608 43.907 31.3508 44.2801 31.4588C46.1533 32.0015 48.0803 32.2729 50.0073 32.2729C51.9343 32.2729 53.8613 32.0015 55.7345 31.4588C56.1076 31.3508 56.3226 30.9608 56.2146 30.588C56.1065 30.2148 55.7161 30.0002 55.3433 30.1079Z" fill="white"/>
</g>
<defs>
<filter id="filter0_f_138_553" x="0" y="0" width="100" height="100" filterUnits="userSpaceOnUse" color-interpolation-filters="sRGB">
<feFlood flood-opacity="0" result="BackgroundImageFix"/>
<feBlend mode="normal" in="SourceGraphic" in2="BackgroundImageFix" result="shape"/>
<feGaussianBlur stdDeviation="12.5" result="effect1_foregroundBlur_138_553"/>
</filter>
<clipPath id="clip0_138_553">
<rect width="48" height="48" fill="white" transform="translate(26 26)"/>
</clipPath>
</defs>
</svg>
