<svg width="100" height="100" viewBox="0 0 100 100" fill="none" xmlns="http://www.w3.org/2000/svg">
<g filter="url(#filter0_f_138_490)">
<circle cx="50" cy="50" r="25" fill="#25B4F8"/>
</g>
<circle cx="50" cy="50" r="35" fill="#25B4F8"/>
<path d="M67.2973 30.2508C66.1423 29.2188 64.8246 28.3788 63.3876 27.7983C61.9153 27.2035 60.3418 26.887 58.7578 26.8105C58.4758 26.797 58.1931 26.791 57.9111 26.791C56.4328 26.7948 54.9148 27.1788 53.5191 27.9025C51.3171 29.0448 48.6898 29.044 46.4886 27.9025C45.0928 27.1788 43.5741 26.7948 42.0966 26.791C40.5058 26.791 38.9158 27.0085 37.4031 27.511C35.9331 27.9993 34.5576 28.75 33.3456 29.7138C33.1296 29.8855 32.9173 30.0648 32.7111 30.25C29.6503 32.9928 28.0168 37.0923 28.2291 41.5C28.4338 45.4893 29.7516 50.8225 34.7338 53.9808C34.7053 55.09 34.6828 56.2315 34.7608 57.3858C34.8141 58.0878 34.8748 58.8835 34.9993 59.674C35.6743 64.0405 37.0063 68.9223 41.7658 72.0205C42.9081 72.7638 44.7553 73.8408 46.0041 72.6693C46.8756 71.851 47.0938 70.3758 47.1553 69.2395C47.1576 69.1863 47.4463 64.2963 50.0383 59.4633C51.0853 61.1905 52.7233 64.6255 53.3031 69.889C53.4658 71.3665 54.1026 73.2093 55.8936 73.2093C56.8258 73.2093 57.6703 72.6933 58.0063 72.4885C60.8248 70.7688 62.7913 68.4303 64.0183 65.341C65.4831 61.6675 65.6271 58.0945 65.3383 53.9463C70.2906 50.77 71.5828 45.463 71.7688 41.4918C71.9923 37.0855 70.3618 32.9883 67.2973 30.2508ZM55.7436 49.552C54.4656 48.6528 52.6858 47.6508 50.6436 46.9045C50.1966 46.741 49.7968 46.627 49.3581 46.9045C47.3211 47.6485 45.5451 48.6468 44.2686 49.5445C44.0466 46.615 43.1886 43.6593 42.3921 41.5143L47.7141 42.8958C49.3656 43.3255 51.1093 43.315 52.7548 42.8658L57.5908 41.506C56.8131 43.6743 55.9626 46.6278 55.7436 49.552ZM50.7928 56.6343C50.5581 56.374 50.2191 56.2383 49.8673 56.266C49.5186 56.2938 49.2021 56.4828 49.0123 56.7775C45.2968 62.5315 44.9241 68.854 44.9106 69.1188C44.9098 69.127 44.9083 69.1345 44.9083 69.1428C41.9668 62.08 43.7961 54.0325 44.1846 52.519C44.6121 52.0038 46.9198 50.218 50.0008 49.0653C53.1283 50.2353 55.4616 52.06 55.8373 52.543C56.2836 54.0123 58.5268 62.221 55.5036 69.361C54.4963 60.8418 50.9458 56.8023 50.7928 56.6343ZM42.8301 70.0188C38.9481 67.393 37.8126 63.1495 37.2216 59.3253C37.1106 58.6218 37.0536 57.8733 37.0041 57.2223C36.9276 56.101 36.9568 54.9843 36.9876 53.8C37.0041 53.1295 36.9291 52.6758 36.3126 52.3173C31.8208 49.708 30.6568 44.935 30.4746 41.3853C30.2953 37.6608 31.6566 34.2115 34.2111 31.9225C35.7508 30.5425 37.6393 29.6215 39.6726 29.248C41.6466 28.8858 43.6431 28.9593 45.4513 29.8968C48.3006 31.3743 51.7033 31.375 54.5533 29.8968C55.6318 29.3373 56.7943 29.0403 57.9156 29.038C59.4913 29.038 61.0656 29.2915 62.5311 29.881C63.7296 30.3633 64.8343 31.0615 65.7958 31.924C68.3511 34.207 69.7101 37.6518 69.5226 41.3785C69.3561 44.9515 68.1966 49.7545 63.6238 52.3683C63.2871 52.561 63.0148 53.0298 63.0523 53.4415C63.3801 57.5733 63.3141 61.0353 61.9296 64.507C61.0161 66.8073 59.6203 68.6148 57.6793 70.0075C59.8828 64.6353 59.7336 58.3825 58.2606 52.834C57.3516 49.411 58.5426 45.5178 59.7073 42.265C59.9871 41.4843 59.8108 40.6218 59.2476 40.0113C58.6783 39.3978 57.8233 39.1525 57.0201 39.3715L52.1616 40.6938C50.8933 41.0388 49.5508 41.047 48.2773 40.717L42.9553 39.3355C42.1521 39.1263 41.3046 39.3783 40.7443 39.9918C40.1878 40.6015 40.0153 41.461 40.2936 42.2358C41.4051 45.3325 42.6051 48.7983 41.9511 52.126C41.5123 54.3565 41.1088 56.5428 41.0173 58.825C40.9446 60.643 41.0188 62.4693 41.2761 64.2708C41.4846 65.7288 41.8176 67.1853 42.2878 68.5818C42.2878 68.5818 42.6208 69.7608 42.8301 70.0188Z" fill="white" stroke="#25B4F8" stroke-width="0.7"/>
<defs>
<filter id="filter0_f_138_490" x="0" y="0" width="100" height="100" filterUnits="userSpaceOnUse" color-interpolation-filters="sRGB">
<feFlood flood-opacity="0" result="BackgroundImageFix"/>
<feBlend mode="normal" in="SourceGraphic" in2="BackgroundImageFix" result="shape"/>
<feGaussianBlur stdDeviation="12.5" result="effect1_foregroundBlur_138_490"/>
</filter>
</defs>
</svg>
